<svg width="214" height="268" viewBox="0 0 214 268" fill="none" xmlns="http://www.w3.org/2000/svg">
<mask id="mask0_102_27" style="mask-type:alpha" maskUnits="userSpaceOnUse" x="-1" y="0" width="215" height="268">
<rect x="-0.0090332" y="0.619331" width="213.538" height="266.425" rx="30" fill="#ED713C"/>
</mask>
<g mask="url(#mask0_102_27)">
<path opacity="0.1" d="M107.168 280.076C107.168 360.214 41.0102 425.696 -41.2439 425.696C-123.498 425.696 -189.656 360.214 -189.656 280.076C-189.656 199.938 -123.498 134.456 -41.2439 134.456C41.0102 134.456 107.168 199.938 107.168 280.076Z" fill="black" stroke="black" stroke-width="36"/>
<path opacity="0.1" d="M417.902 -37.7517C417.902 64.4901 348.679 141.895 269.49 141.895C190.302 141.895 121.078 64.4901 121.078 -37.7517C121.078 -139.993 190.302 -217.399 269.49 -217.399C348.679 -217.399 417.902 -139.993 417.902 -37.7517Z" fill="black" stroke="black" stroke-width="36"/>
</g>
</svg>
