<svg width="67" height="41" viewBox="0 0 67 41" fill="none" xmlns="http://www.w3.org/2000/svg">
<path d="M24.2024 4.88507H42.1208V36.5412H24.2024V4.88507Z" fill="#B27BFF"/>
<path d="M25.3399 20.7132C25.3399 14.2814 28.4115 8.5765 33.1328 4.88506C29.6631 2.20049 25.2831 0.57859 20.5049 0.57859C9.18457 0.57859 0.0263672 9.58312 0.0263672 20.7132C0.0263672 31.8431 9.18457 40.8479 20.5046 40.8479C25.2829 40.8479 29.6628 39.226 33.1328 36.5412C28.4115 32.9058 25.3399 27.145 25.3399 20.7132Z" fill="#9E59FF"/>
<path d="M66.296 20.7133C66.296 31.8431 57.1378 40.8479 45.8177 40.8479C41.0395 40.8479 36.6595 39.226 33.1896 36.5412C37.9678 32.85 40.9827 27.1451 40.9827 20.7133C40.9827 14.2815 37.9108 8.57652 33.1896 4.88508C36.6592 2.20051 41.0395 0.578613 45.8177 0.578613C57.1378 0.578613 66.2962 9.63919 66.2962 20.7133H66.296Z" fill="#9E59FF"/>
</svg>
